<svg width="327" height="50" viewBox="0 0 327 50" fill="none" xmlns="http://www.w3.org/2000/svg">
<g clip-path="url(#clip0_1407_9)">
<path d="M72.9712 41H65.7202V1.52832H72.9712V26.4189L83.7026 12.8135H91.9819L82.6216 24.5732L91.9819 41H83.7026L77.981 30.7432L72.9712 37.3877V41ZM102.78 5.08789C102.78 5.75586 102.648 6.37988 102.384 6.95996C102.138 7.54004 101.795 8.0498 101.356 8.48926C100.917 8.91113 100.398 9.25391 99.8003 9.51758C99.2203 9.76367 98.5962 9.88672 97.9283 9.88672C97.2603 9.88672 96.6275 9.76367 96.0298 9.51758C95.4497 9.25391 94.94 8.91113 94.5005 8.48926C94.0787 8.0498 93.7359 7.54004 93.4722 6.95996C93.2261 6.37988 93.1031 5.75586 93.1031 5.08789C93.1031 4.4375 93.2261 3.82227 93.4722 3.24219C93.7359 2.64453 94.0787 2.13477 94.5005 1.71289C94.94 1.27344 95.4497 0.930664 96.0298 0.68457C96.6275 0.420898 97.2603 0.289062 97.9283 0.289062C98.5962 0.289062 99.2203 0.420898 99.8003 0.68457C100.398 0.930664 100.917 1.27344 101.356 1.71289C101.795 2.13477 102.138 2.64453 102.384 3.24219C102.648 3.82227 102.78 4.4375 102.78 5.08789ZM101.541 41H94.2896V12.7607H101.541V41ZM113.71 41H106.511V12.7607H108.252L110.625 15.5029C111.785 14.4482 113.094 13.6396 114.553 13.0771C116.03 12.4971 117.568 12.207 119.168 12.207C120.89 12.207 122.516 12.541 124.045 13.209C125.575 13.8594 126.911 14.7646 128.053 15.9248C129.196 17.0674 130.092 18.4121 130.743 19.959C131.411 21.4883 131.745 23.123 131.745 24.8633V41H124.546V24.8633C124.546 24.125 124.406 23.4307 124.125 22.7803C123.843 22.1123 123.457 21.5322 122.964 21.04C122.472 20.5479 121.901 20.1611 121.251 19.8799C120.6 19.5986 119.906 19.458 119.168 19.458C118.412 19.458 117.7 19.5986 117.032 19.8799C116.364 20.1611 115.784 20.5479 115.292 21.04C114.799 21.5322 114.413 22.1123 114.131 22.7803C113.85 23.4307 113.71 24.125 113.71 24.8633V41ZM164.401 26.6299C164.401 28.8447 164.023 30.8662 163.267 32.6943C162.511 34.5225 161.483 36.0957 160.182 37.4141C158.881 38.7148 157.352 39.7256 155.594 40.4463C153.854 41.167 151.982 41.5273 149.978 41.5273C147.992 41.5273 146.12 41.1582 144.362 40.4199C142.622 39.6816 141.092 38.6533 139.774 37.335C138.473 36.0166 137.445 34.4521 136.689 32.6416C135.933 30.8135 135.555 28.8096 135.555 26.6299V1.52832H142.78V14.7119C143.167 14.2197 143.632 13.7803 144.177 13.3936C144.74 13.0068 145.338 12.6904 145.97 12.4443C146.621 12.1982 147.289 12.0137 147.974 11.8906C148.66 11.75 149.328 11.6797 149.978 11.6797C151.982 11.6797 153.854 12.0576 155.594 12.8135C157.352 13.5518 158.881 14.5889 160.182 15.9248C161.483 17.2607 162.511 18.8428 163.267 20.6709C164.023 22.4814 164.401 24.4678 164.401 26.6299ZM157.15 26.6299C157.15 25.54 156.957 24.5293 156.57 23.5977C156.201 22.6484 155.691 21.8311 155.041 21.1455C154.39 20.46 153.626 19.9238 152.747 19.5371C151.885 19.1504 150.963 18.957 149.978 18.957C148.994 18.957 148.062 19.1768 147.183 19.6162C146.322 20.0381 145.566 20.6094 144.916 21.3301C144.265 22.0332 143.755 22.8506 143.386 23.7822C143.017 24.6963 142.833 25.6455 142.833 26.6299C142.833 27.7197 143.017 28.7305 143.386 29.6621C143.755 30.5938 144.265 31.4023 144.916 32.0879C145.566 32.7734 146.322 33.3184 147.183 33.7227C148.062 34.1094 148.994 34.3027 149.978 34.3027C150.963 34.3027 151.885 34.1094 152.747 33.7227C153.626 33.3184 154.39 32.7734 155.041 32.0879C155.691 31.4023 156.201 30.5938 156.57 29.6621C156.957 28.7305 157.15 27.7197 157.15 26.6299ZM195.159 26.6299C195.159 28.7393 194.781 30.708 194.025 32.5361C193.269 34.3467 192.241 35.9199 190.94 37.2559C189.639 38.5742 188.11 39.6201 186.352 40.3936C184.612 41.1494 182.74 41.5273 180.736 41.5273C178.75 41.5273 176.878 41.1494 175.12 40.3936C173.38 39.6201 171.85 38.5742 170.532 37.2559C169.231 35.9199 168.203 34.3467 167.447 32.5361C166.691 30.708 166.313 28.7393 166.313 26.6299C166.313 24.4854 166.691 22.499 167.447 20.6709C168.203 18.8428 169.231 17.2695 170.532 15.9512C171.85 14.6152 173.38 13.5693 175.12 12.8135C176.878 12.0576 178.75 11.6797 180.736 11.6797C182.74 11.6797 184.612 12.04 186.352 12.7607C188.11 13.4639 189.639 14.4746 190.94 15.793C192.241 17.0938 193.269 18.667 194.025 20.5127C194.781 22.3408 195.159 24.3799 195.159 26.6299ZM187.908 26.6299C187.908 25.4697 187.715 24.4238 187.328 23.4922C186.959 22.543 186.449 21.7344 185.798 21.0664C185.148 20.3809 184.383 19.8623 183.505 19.5107C182.643 19.1416 181.72 18.957 180.736 18.957C179.752 18.957 178.82 19.1416 177.941 19.5107C177.08 19.8623 176.324 20.3809 175.673 21.0664C175.041 21.7344 174.54 22.543 174.171 23.4922C173.801 24.4238 173.617 25.4697 173.617 26.6299C173.617 27.7197 173.801 28.7305 174.171 29.6621C174.54 30.5938 175.041 31.4023 175.673 32.0879C176.324 32.7734 177.08 33.3184 177.941 33.7227C178.82 34.1094 179.752 34.3027 180.736 34.3027C181.72 34.3027 182.643 34.1182 183.505 33.749C184.383 33.3799 185.148 32.8613 185.798 32.1934C186.449 31.5254 186.959 30.7168 187.328 29.7676C187.715 28.8184 187.908 27.7725 187.908 26.6299ZM223.438 41H214.632L209.015 32.3516L203.346 41H194.54L204.849 26.5244L194.54 12.6025H203.346L209.015 20.6973L214.632 12.6025H223.438L213.102 26.5244L223.438 41Z" fill="#08142D"/>
<path fill-rule="evenodd" clip-rule="evenodd" d="M4.95741 2.79776C2.53531 2.82401 0.69218 4.98 1.04292 7.37671L5.76184 39.6227C6.04932 41.5871 7.73426 43.0435 9.71968 43.0435H37.5656C39.5698 43.0435 41.2647 41.5601 41.5303 39.5735L45.895 6.92729C46.2179 4.51161 44.3239 2.37104 41.8869 2.39746L4.95741 2.79776ZM20.8558 16.8474C19.0244 16.8474 17.6204 18.474 17.888 20.2858L18.6267 25.2858C18.8441 26.7573 20.1069 27.8474 21.5945 27.8474H26.0616C27.5355 27.8474 28.791 26.7768 29.0239 25.3215L29.8241 20.3215C30.1158 18.4987 28.7078 16.8474 26.8618 16.8474H20.8558Z" fill="#0071F5"/>
<path d="M256.246 39H254.957L252.887 36.1289C252.379 36.5846 251.839 37.0143 251.266 37.418C250.706 37.8086 250.113 38.1536 249.488 38.4531C248.863 38.7396 248.219 38.9674 247.555 39.1367C246.904 39.306 246.24 39.3906 245.562 39.3906C244.091 39.3906 242.704 39.1172 241.402 38.5703C240.113 38.0104 238.98 37.2422 238.004 36.2656C237.04 35.276 236.279 34.1107 235.719 32.7695C235.159 31.4154 234.879 29.944 234.879 28.3555C234.879 26.7799 235.159 25.3151 235.719 23.9609C236.279 22.6068 237.04 21.4349 238.004 20.4453C238.98 19.4557 240.113 18.681 241.402 18.1211C242.704 17.5612 244.091 17.2812 245.562 17.2812C246.031 17.2812 246.513 17.3203 247.008 17.3984C247.516 17.4766 248.004 17.6068 248.473 17.7891C248.954 17.9583 249.404 18.1862 249.82 18.4727C250.237 18.7591 250.589 19.1107 250.875 19.5273V9.76172H256.246V39ZM250.875 28.3555C250.875 27.6263 250.732 26.9232 250.445 26.2461C250.172 25.556 249.794 24.9505 249.312 24.4297C248.831 23.8958 248.264 23.4727 247.613 23.1602C246.975 22.8346 246.292 22.6719 245.562 22.6719C244.833 22.6719 244.143 22.8021 243.492 23.0625C242.854 23.3229 242.294 23.7005 241.812 24.1953C241.344 24.6771 240.973 25.2695 240.699 25.9727C240.426 26.6758 240.289 27.4701 240.289 28.3555C240.289 29.1237 240.426 29.8529 240.699 30.543C240.973 31.2331 241.344 31.8385 241.812 32.3594C242.294 32.8802 242.854 33.2904 243.492 33.5898C244.143 33.8893 244.833 34.0391 245.562 34.0391C246.292 34.0391 246.975 33.8828 247.613 33.5703C248.264 33.2448 248.831 32.8216 249.312 32.3008C249.794 31.7669 250.172 31.1615 250.445 30.4844C250.732 29.7943 250.875 29.0846 250.875 28.3555ZM280.143 28.3555C280.143 29.918 279.863 31.3763 279.303 32.7305C278.743 34.0716 277.982 35.237 277.018 36.2266C276.054 37.2031 274.922 37.9779 273.62 38.5508C272.33 39.1107 270.944 39.3906 269.459 39.3906C267.988 39.3906 266.601 39.1107 265.299 38.5508C264.01 37.9779 262.877 37.2031 261.901 36.2266C260.937 35.237 260.176 34.0716 259.616 32.7305C259.056 31.3763 258.776 29.918 258.776 28.3555C258.776 26.7669 259.056 25.2956 259.616 23.9414C260.176 22.5872 260.937 21.4219 261.901 20.4453C262.877 19.4557 264.01 18.681 265.299 18.1211C266.601 17.5612 267.988 17.2812 269.459 17.2812C270.944 17.2812 272.33 17.5482 273.62 18.082C274.922 18.6029 276.054 19.3516 277.018 20.3281C277.982 21.2917 278.743 22.457 279.303 23.8242C279.863 25.1784 280.143 26.6888 280.143 28.3555ZM274.772 28.3555C274.772 27.4961 274.629 26.7214 274.342 26.0312C274.069 25.3281 273.691 24.7292 273.209 24.2344C272.728 23.7266 272.161 23.3424 271.51 23.082C270.872 22.8086 270.189 22.6719 269.459 22.6719C268.73 22.6719 268.04 22.8086 267.389 23.082C266.751 23.3424 266.191 23.7266 265.709 24.2344C265.241 24.7292 264.87 25.3281 264.596 26.0312C264.323 26.7214 264.186 27.4961 264.186 28.3555C264.186 29.1628 264.323 29.9115 264.596 30.6016C264.87 31.2917 265.241 31.8906 265.709 32.3984C266.191 32.9062 266.751 33.3099 267.389 33.6094C268.04 33.8958 268.73 34.0391 269.459 34.0391C270.189 34.0391 270.872 33.9023 271.51 33.6289C272.161 33.3555 272.728 32.9714 273.209 32.4766C273.691 31.9818 274.069 31.3828 274.342 30.6797C274.629 29.9766 274.772 29.2018 274.772 28.3555ZM300.973 22.2422L297.067 26.168C296.872 25.6211 296.605 25.1328 296.266 24.7031C295.928 24.2604 295.544 23.8893 295.114 23.5898C294.697 23.2904 294.242 23.0625 293.747 22.9062C293.252 22.75 292.744 22.6719 292.223 22.6719C291.494 22.6719 290.804 22.8216 290.153 23.1211C289.515 23.4206 288.955 23.8438 288.473 24.3906C288.005 24.9245 287.634 25.5625 287.36 26.3047C287.087 27.0469 286.95 27.8672 286.95 28.7656C286.95 29.4948 287.087 30.1784 287.36 30.8164C287.634 31.4544 288.005 32.0143 288.473 32.4961C288.955 32.9779 289.515 33.3555 290.153 33.6289C290.804 33.9023 291.494 34.0391 292.223 34.0391C292.744 34.0391 293.246 33.9674 293.727 33.8242C294.209 33.681 294.658 33.4792 295.075 33.2188C295.505 32.9453 295.882 32.6198 296.208 32.2422C296.546 31.8516 296.82 31.4219 297.028 30.9531L300.934 34.8789C300.44 35.582 299.867 36.2135 299.216 36.7734C298.578 37.3333 297.881 37.8086 297.126 38.1992C296.384 38.5898 295.596 38.8828 294.763 39.0781C293.942 39.2865 293.096 39.3906 292.223 39.3906C290.752 39.3906 289.365 39.1172 288.063 38.5703C286.774 38.0104 285.641 37.2487 284.665 36.2852C283.701 35.3216 282.94 34.1953 282.38 32.9062C281.82 31.6172 281.54 30.237 281.54 28.7656C281.54 27.1641 281.82 25.6667 282.38 24.2734C282.94 22.8802 283.701 21.6693 284.665 20.6406C285.641 19.599 286.774 18.7786 288.063 18.1797C289.365 17.5807 290.752 17.2812 292.223 17.2812C293.096 17.2812 293.949 17.3919 294.782 17.6133C295.628 17.8346 296.429 18.1602 297.184 18.5898C297.953 19.0065 298.656 19.5208 299.294 20.1328C299.945 20.7448 300.505 21.4479 300.973 22.2422ZM314.675 39H302.488V33.6875H314.675C315.04 33.6875 315.352 33.5573 315.613 33.2969C315.873 33.0365 316.003 32.724 316.003 32.3594C316.003 31.9818 315.873 31.7344 315.613 31.6172C315.352 31.5 315.04 31.4414 314.675 31.4414H309.128C308.204 31.4414 307.338 31.2656 306.53 30.9141C305.723 30.5625 305.02 30.0872 304.421 29.4883C303.822 28.8763 303.347 28.1667 302.995 27.3594C302.657 26.5521 302.488 25.6862 302.488 24.7617C302.488 23.8372 302.657 22.9714 302.995 22.1641C303.347 21.3568 303.822 20.6536 304.421 20.0547C305.02 19.4557 305.723 18.987 306.53 18.6484C307.338 18.2969 308.204 18.1211 309.128 18.1211H319.929V23.4336H309.128C308.764 23.4336 308.451 23.5638 308.191 23.8242C307.93 24.0846 307.8 24.3971 307.8 24.7617C307.8 25.1393 307.93 25.4648 308.191 25.7383C308.451 25.9987 308.764 26.1289 309.128 26.1289H314.675C315.586 26.1289 316.446 26.2852 317.253 26.5977C318.06 26.8971 318.764 27.3203 319.363 27.8672C319.961 28.4141 320.437 29.0716 320.788 29.8398C321.14 30.6081 321.316 31.4479 321.316 32.3594C321.316 33.2839 321.14 34.1497 320.788 34.957C320.437 35.7513 319.961 36.4544 319.363 37.0664C318.764 37.6654 318.06 38.1406 317.253 38.4922C316.446 38.8307 315.586 39 314.675 39Z" fill="#9AA3A8"/>
</g>
<defs>
<clipPath id="clip0_1407_9">
<rect width="327" height="50" fill="white"/>
</clipPath>
</defs>
</svg>
